<?xml version="1.0" standalone="no"?>
<!DOCTYPE svg PUBLIC "-//W3C//DTD SVG 20010904//EN"
 "http://www.w3.org/TR/2001/REC-SVG-20010904/DTD/svg10.dtd">
<svg version="1.0" xmlns="http://www.w3.org/2000/svg"
 width="820.000000pt" height="616.000000pt" viewBox="0 0 820.000000 616.000000"
 preserveAspectRatio="xMidYMid meet">

<g transform="translate(0.000000,616.000000) scale(0.100000,-0.100000)"
fill="#000000" stroke="none">
<path d="M5240 6154 c0 -5 7 -30 14 -56 14 -45 14 -46 -7 -52 -36 -10 -59 -7
-54 7 22 60 32 58 -120 26 -76 -15 -282 -58 -458 -94 -476 -98 -423 -80 -442
-142 -24 -77 -26 -58 -5 36 11 44 15 81 10 81 -23 0 -68 -32 -68 -49 0 -11 -3
-28 -7 -38 -6 -14 -9 -10 -13 17 l-5 35 -55 -3 c-30 -1 -95 -5 -143 -8 -88 -6
-89 -7 -103 -38 -13 -31 -13 -31 -14 -5 l0 27 -77 -23 -78 -22 -32 -89 c-33
-94 -40 -98 -22 -14 6 28 9 54 6 56 -8 9 -56 -83 -91 -173 -19 -48 -38 -97
-42 -108 -6 -15 3 -11 42 17 46 34 214 123 214 114 0 -2 -29 -28 -65 -56 -63
-50 -65 -53 -65 -97 0 -24 3 -43 8 -41 4 2 42 20 85 40 42 20 77 42 77 48 0 6
4 9 9 5 6 -3 34 4 63 15 29 11 54 20 55 20 1 0 -5 -16 -13 -35 -7 -19 -14 -38
-14 -43 0 -9 106 -52 127 -52 5 0 52 50 103 110 l95 110 125 1 c69 1 172 3
230 4 58 2 272 6 475 9 354 6 369 5 348 -11 l-22 -18 119 -138 c66 -77 120
-147 120 -158 0 -11 9 -21 24 -25 23 -5 24 -10 28 -94 1 -49 7 -92 11 -96 7
-7 219 -35 224 -30 2 1 -14 22 -35 46 -39 46 -35 46 37 -3 52 -36 192 -82 201
-67 4 6 20 70 35 142 16 72 30 127 32 122 4 -12 -54 -454 -60 -460 -2 -3 -8
21 -12 53 -12 108 -4 100 -118 108 -56 4 -109 9 -117 10 -8 2 -63 6 -121 10
l-106 7 -80 -148 -81 -149 102 -66 c55 -36 169 -107 251 -159 226 -141 225
-141 -108 15 -115 53 -210 95 -212 93 -1 -2 -20 -32 -43 -68 -33 -54 -41 -77
-46 -135 l-6 -70 39 45 40 44 150 -49 c83 -27 149 -51 147 -53 -3 -2 -63 7
-134 19 l-131 22 -195 -88 c-108 -49 -196 -92 -196 -96 0 -3 48 -12 107 -18
59 -7 110 -14 112 -17 2 -2 -28 -4 -67 -4 -70 0 -74 -1 -229 -83 -87 -46 -231
-121 -320 -167 -89 -47 -161 -86 -159 -87 2 -2 77 4 167 12 90 8 191 17 224
20 33 3 93 10 134 16 41 5 76 8 78 6 2 -2 -13 -26 -34 -52 l-36 -48 -24 28
-24 28 -16 -23 -16 -23 -274 5 -274 6 -137 -201 c-75 -111 -138 -204 -140
-208 -2 -5 89 -77 393 -307 44 -33 81 -59 82 -58 1 1 -7 39 -17 85 l-18 84 51
66 c29 36 79 101 111 144 32 42 60 77 62 77 5 0 -16 -43 -97 -205 l-76 -150
24 -65 c13 -36 32 -72 43 -80 10 -8 111 -94 225 -190 114 -96 216 -182 227
-189 11 -8 82 -27 157 -41 l136 -26 3 -46 3 -47 -118 40 c-64 21 -120 39 -124
39 -8 0 -223 -178 -227 -188 -1 -4 15 -18 35 -30 l38 -22 -36 0 c-32 0 -39 5
-73 55 -30 43 -43 54 -60 50 -11 -2 -138 -25 -281 -51 -143 -25 -316 -56 -385
-69 -120 -22 -122 -23 -63 -24 97 -1 82 -17 -28 -30 -133 -15 -146 -14 -178 8
-18 13 -61 24 -129 32 -112 14 -128 11 -194 -44 l-26 -22 29 -94 c21 -66 41
-110 70 -147 40 -52 61 -111 168 -471 l21 -71 139 -111 140 -110 82 14 c45 8
83 16 85 18 2 1 -21 46 -52 98 l-54 95 -21 175 c-17 138 -25 178 -41 195 l-19
21 97 59 96 58 -34 29 c-24 20 -27 27 -13 23 11 -2 59 -13 107 -22 48 -10 85
-21 82 -25 -2 -4 -40 -19 -84 -34 -44 -15 -80 -29 -80 -32 0 -5 172 1 330 12
36 3 202 12 370 20 168 8 341 17 385 20 44 3 213 12 375 20 162 8 329 18 371
21 l76 6 13 72 c14 75 16 75 28 8 l7 -43 83 162 c46 88 82 162 80 163 -31 25
-308 172 -305 162 3 -8 31 -53 61 -100 86 -133 95 -126 -156 -125 -235 2 -243
6 -33 17 l140 7 -105 57 c-80 43 -151 70 -297 115 -105 31 -190 59 -188 61 2
3 486 -86 558 -102 9 -2 17 -3 17 -1 0 2 -46 36 -102 74 -110 77 -110 78 19
60 77 -10 123 -31 293 -133 l34 -20 -43 59 c-23 33 -122 170 -218 305 l-176
245 -143 -10 c-148 -10 -164 -10 -164 6 0 5 50 9 110 9 61 0 110 2 110 5 0 5
-219 269 -359 434 -31 36 -64 61 -101 78 -43 19 -51 26 -40 34 20 13 548 279
555 279 3 0 5 -9 5 -21 0 -17 32 1 184 105 l185 125 3 -39 3 -40 87 81 c69 63
89 77 94 65 4 -10 15 -15 28 -14 17 2 56 -36 180 -175 88 -98 162 -174 166
-170 4 4 16 31 26 58 l19 50 3 -46 c3 -46 4 -47 97 -115 52 -37 93 -69 91 -71
-2 -2 -32 6 -67 16 -35 11 -65 19 -66 17 -2 -2 79 -69 179 -149 101 -80 184
-144 185 -143 2 1 -8 30 -21 64 -14 34 -19 59 -13 56 7 -4 34 -23 60 -42 26
-19 50 -32 53 -29 3 2 -2 47 -10 98 -31 190 -56 361 -56 374 0 7 6 15 14 17 9
2 -47 67 -139 163 l-153 160 -23 -53 c-26 -63 -36 -64 -14 -1 l16 44 -32 27
-31 26 25 14 26 13 -65 110 c-35 60 -70 115 -77 121 -6 6 -65 21 -131 33
l-118 23 -105 -111 -105 -111 -139 0 -139 0 -29 -57 c-44 -86 -66 -111 -43
-48 11 28 25 67 31 88 l13 37 141 0 142 1 75 115 c41 64 80 129 87 144 10 24
113 110 113 95 0 -3 -23 -40 -51 -81 -44 -66 -47 -74 -27 -69 13 3 81 19 152
35 71 17 130 29 133 27 2 -2 -21 -19 -51 -38 -31 -18 -54 -34 -52 -36 2 -2 42
6 90 17 48 11 90 20 95 20 4 0 57 -36 117 -81 l109 -80 30 38 c16 21 73 87
125 148 92 107 95 111 101 170 3 33 2 68 -3 78 -8 15 -2 28 23 60 26 32 37 60
50 126 l17 85 -33 66 c-18 36 -48 79 -66 95 -19 17 -74 66 -124 109 -49 44
-102 90 -117 104 l-26 24 -134 -22 c-73 -12 -141 -24 -150 -28 -24 -10 -228
-261 -228 -281 1 -9 6 -62 13 -118 l13 -101 -26 -5 c-14 -3 -27 -3 -29 -1 -2
2 -21 75 -42 161 -20 87 -41 174 -46 193 l-9 35 -185 50 c-144 39 -184 54
-184 67 0 9 -49 74 -110 144 -265 308 -266 309 -304 316 -44 8 -181 10 -181 2
0 -3 29 -38 63 -78 44 -50 95 -130 162 -252 107 -195 148 -270 176 -324 21
-42 82 -231 75 -237 -2 -3 -22 19 -44 49 l-41 53 -120 34 c-66 18 -126 40
-132 48 -11 12 -9 13 12 9 174 -41 229 -53 229 -51 0 2 -18 36 -41 76 -22 41
-69 135 -105 209 -35 74 -83 173 -107 220 -47 92 -187 313 -194 306 -3 -2 3
-77 11 -167 9 -89 15 -163 13 -165 -1 -2 -20 68 -41 154 -40 163 -55 201 -57
142 l-1 -35 -9 30 c-6 20 -25 41 -56 61 -27 17 -60 39 -75 48 -16 10 -28 14
-28 10z m704 -1892 c2 -4 -11 -28 -30 -51 -40 -51 -42 -48 -12 14 21 44 32 53
42 37z m265 -65 c-2 -2 -58 -53 -124 -113 -153 -138 -169 -152 -164 -136 5 16
270 252 283 252 5 0 7 -1 5 -3z m-454 -177 c-3 -5 -10 -10 -16 -10 -5 0 -9 5
-9 10 0 6 7 10 16 10 8 0 12 -4 9 -10z m-783 -292 c-7 -7 -12 -8 -12 -2 0 6 3
14 7 17 3 4 9 5 12 2 2 -3 -1 -11 -7 -17z m-84 -691 c9 -11 -3 -12 -65 -5 -42
5 -79 10 -81 13 -3 3 26 5 65 5 46 0 74 -5 81 -13z"/>
<path d="M4410 6030 c-91 -4 -190 -8 -220 -9 l-55 -1 40 -23 c22 -12 59 -31
83 -41 l42 -19 163 47 c89 27 164 50 166 52 2 2 -9 3 -25 2 -16 -1 -103 -5
-194 -8z"/>
<path d="M3370 5838 c-14 -5 -65 -22 -115 -38 l-90 -28 100 -1 100 -1 23 35
c31 49 30 52 -18 33z"/>
<path d="M3478 5458 c-40 -66 -46 -83 -37 -100 6 -11 14 -16 18 -12 75 88 82
101 74 147 l-8 45 -47 -80z"/>
<path d="M2935 5489 c-38 -4 -103 -7 -144 -8 -41 0 -72 -3 -69 -6 4 -5 310
-55 335 -55 8 0 8 9 1 34 -13 40 -25 44 -123 35z"/>
<path d="M3803 5421 c-19 -43 -24 -66 -19 -99 3 -24 9 -48 12 -54 3 -5 35 34
71 87 35 53 63 98 61 100 -2 1 -25 7 -51 13 l-49 10 -25 -57z"/>
<path d="M4946 5432 c-2 -9 -7 -27 -11 -39 -6 -22 -4 -21 70 9 41 17 74 32 73
33 -2 1 -31 5 -65 8 -53 6 -62 4 -67 -11z"/>
<path d="M5450 5404 c1 -41 30 -317 34 -321 3 -3 30 4 60 17 l55 22 -71 141
c-73 147 -78 157 -78 141z"/>
<path d="M3131 5371 l-44 -6 76 -32 c42 -17 77 -28 77 -24 0 4 -5 22 -11 40
-12 33 -13 34 -98 22z"/>
<path d="M1640 5362 c0 -24 36 -102 48 -102 32 0 163 44 150 51 -23 12 -198
57 -198 51z"/>
<path d="M7966 5212 c-16 -54 -38 -193 -33 -206 4 -9 18 -16 34 -16 28 0 28 1
49 113 12 61 21 112 20 113 0 1 -15 4 -33 7 -25 5 -33 2 -37 -11z"/>
<path d="M7844 5071 c-12 -82 -9 -91 20 -91 20 0 24 7 30 46 3 26 6 62 6 80 0
29 -3 34 -24 34 -21 0 -24 -6 -32 -69z"/>
<path d="M8055 5118 c-20 -62 -55 -210 -51 -217 3 -5 16 -11 30 -13 23 -5 25
0 51 110 23 95 25 116 14 123 -20 12 -39 11 -44 -3z"/>
<path d="M8140 4966 c-13 -36 -32 -108 -28 -111 2 -2 14 -5 27 -7 22 -3 26 3
44 61 15 52 16 65 5 72 -23 15 -38 10 -48 -15z"/>
<path d="M7812 4838 c-11 -57 -21 -91 -21 -76 -1 19 -9 32 -28 42 -19 10 -22
15 -11 16 21 0 32 48 19 83 -6 15 -13 27 -16 27 -2 0 -16 -23 -30 -51 -24 -45
-25 -57 -19 -121 l7 -70 56 6 56 5 -57 -16 c-66 -17 -66 -19 1 -90 40 -42 41
-43 108 -43 37 0 84 -3 104 -6 l35 -6 63 121 c34 67 58 121 54 121 -5 0 -42
-9 -82 -20 -40 -12 -75 -19 -77 -17 -2 2 28 19 66 37 39 19 70 36 70 40 0 6
-256 120 -270 120 -4 0 -17 -46 -28 -102z"/>
<path d="M5095 4812 c4 -9 14 -35 21 -58 l15 -41 89 25 c50 14 88 27 86 30 -3
2 -53 17 -111 33 -94 25 -106 26 -100 11z"/>
<path d="M7775 4529 c-150 -423 -188 -504 -278 -596 l-61 -63 23 -86 c28 -107
22 -121 -8 -19 -13 41 -24 75 -26 75 -13 0 -49 -79 -47 -104 4 -60 54 -381 61
-388 3 -3 34 5 69 19 49 20 62 29 57 42 -4 9 -9 28 -12 42 -4 24 -1 27 40 37
44 11 46 14 75 84 60 145 339 823 345 838 3 8 13 33 22 55 l17 40 -53 -50
c-30 -27 -42 -36 -27 -20 15 17 30 42 33 56 7 26 6 27 -57 33 -35 4 -87 9
-115 13 -40 4 -54 2 -58 -8z"/>
<path d="M4476 4498 c-18 -88 -18 -87 22 -97 53 -14 125 -30 137 -31 5 0 -24
34 -65 75 -41 41 -78 75 -82 75 -4 0 -10 -10 -12 -22z"/>
<path d="M4085 4461 l-60 -6 75 -32 c41 -17 76 -30 78 -28 6 6 -19 75 -26 73
-4 -1 -34 -4 -67 -7z"/>
<path d="M5019 4373 c-102 -131 -100 -127 -27 -99 132 49 319 129 314 133 -2
3 -51 17 -109 33 l-104 28 -74 -95z"/>
<path d="M4555 4168 l99 -64 181 51 180 50 -65 6 c-36 4 -162 10 -280 14
l-215 7 100 -64z"/>
<path d="M2953 3927 c-161 -45 -289 -85 -285 -89 5 -5 191 -7 415 -6 l407 3
-104 88 c-57 48 -112 87 -123 86 -10 0 -150 -37 -310 -82z"/>
<path d="M5770 3798 c-47 -22 -137 -65 -200 -95 -63 -29 -116 -55 -118 -57 -5
-5 19 -89 29 -100 6 -7 287 208 374 286 16 14 3 9 -85 -34z"/>
<path d="M691 3563 c0 -27 3 -66 7 -87 l7 -39 125 -28 c69 -16 131 -28 138
-29 8 0 -50 52 -128 115 -78 63 -144 115 -146 115 -2 0 -4 -21 -3 -47z"/>
<path d="M3230 3581 l-55 -6 75 -32 c80 -33 90 -30 71 20 -6 15 -16 26 -23 25
-7 -1 -38 -4 -68 -7z"/>
<path d="M2940 3459 c-77 -74 -98 -99 -80 -95 61 13 330 91 330 96 0 5 -136
100 -142 100 -2 -1 -50 -46 -108 -101z"/>
<path d="M3761 3498 c-6 -17 -10 -33 -8 -34 7 -7 136 50 131 58 -3 4 -29 8
-59 8 -51 0 -54 -1 -64 -32z"/>
<path d="M4150 3243 c-32 -36 -330 -367 -587 -652 -68 -74 -122 -136 -120
-137 1 -1 25 -5 52 -9 374 -48 414 -65 116 -45 l-144 9 -91 -71 c-50 -39 -95
-75 -101 -81 -7 -6 33 -8 115 -4 l125 5 -244 -56 -244 -57 -133 -143 c-73 -79
-168 -191 -211 -250 -42 -59 -129 -177 -193 -262 -164 -219 -213 -290 -203
-290 5 0 13 4 19 9 5 5 59 38 119 74 264 155 1150 681 1202 713 l21 13 -51
125 c-28 69 -57 127 -65 128 -8 2 67 28 166 58 99 30 178 58 176 62 -6 10 31
10 75 2 26 -6 31 -11 31 -35 0 -16 2 -29 5 -29 5 0 72 42 305 195 389 255 450
295 450 299 0 15 -54 126 -61 126 -5 0 -124 -92 -264 -205 -140 -113 -255
-204 -255 -201 0 2 115 106 255 231 140 125 255 230 255 234 0 7 -470 281
-483 281 -2 0 -20 -17 -37 -37z"/>
<path d="M3572 3027 l-302 -111 -11 -41 c-6 -22 -24 -86 -39 -143 l-28 -103
27 17 c14 10 51 36 81 59 30 23 172 126 315 230 276 200 284 206 270 204 -6
-1 -146 -51 -313 -112z"/>
<path d="M2079 3083 c-30 -31 -38 -44 -24 -40 141 39 140 39 119 54 -45 34
-49 34 -95 -14z"/>
<path d="M1587 2847 l-238 -40 98 -63 c54 -35 101 -64 105 -64 10 0 278 198
278 205 0 3 -1 5 -2 4 -2 -1 -110 -19 -241 -42z"/>
<path d="M3328 2654 c-4 -5 -34 -79 -67 -164 -34 -85 -66 -166 -71 -178 -6
-13 -7 -22 -2 -20 4 1 63 60 130 129 l122 126 -53 58 c-30 33 -56 55 -59 49z"/>
<path d="M2985 2375 c-33 -19 -64 -37 -70 -39 -10 -5 78 -96 92 -96 5 0 17 30
27 68 10 37 21 75 23 85 7 24 -3 21 -72 -18z"/>
<path d="M2080 2095 c-24 -25 -41 -45 -36 -45 4 0 41 10 82 22 l74 21 -34 24
c-19 12 -36 23 -38 23 -2 0 -24 -20 -48 -45z"/>
<path d="M1385 1999 c-99 -50 -169 -88 -155 -85 14 2 82 12 151 21 l126 18 37
68 c21 38 34 69 29 68 -4 0 -89 -41 -188 -90z"/>
<path d="M1837 1946 c-37 -7 -69 -15 -72 -18 -3 -3 19 -26 49 -51 l54 -46 38
57 c22 31 41 60 42 65 5 9 -29 7 -111 -7z"/>
<path d="M2573 1889 l-161 -60 -21 -77 c-11 -42 -19 -77 -18 -79 3 -2 350 248
372 268 17 16 -7 9 -172 -52z"/>
<path d="M3130 1650 c-85 -32 -161 -62 -170 -68 -14 -9 -55 -141 -46 -150 2
-2 35 19 73 46 87 63 307 223 312 228 10 10 -23 -2 -169 -56z"/>
<path d="M1982 1625 c-112 -30 -206 -56 -210 -59 -3 -3 10 -6 29 -7 19 0 90
-6 158 -13 l124 -12 37 41 c68 72 92 105 78 104 -7 -1 -105 -25 -216 -54z"/>
<path d="M2324 1520 l-239 -150 -31 -197 c-17 -109 -30 -199 -29 -201 2 -2
103 126 226 285 122 158 245 316 272 351 27 34 47 62 45 62 -2 0 -112 -67
-244 -150z"/>
<path d="M432 1469 c-24 -23 -42 -42 -40 -44 6 -4 148 38 148 45 0 4 -12 13
-27 21 -16 7 -30 15 -33 16 -3 1 -24 -16 -48 -38z"/>
<path d="M1920 1428 c-6 -24 -15 -58 -20 -77 -5 -19 -8 -36 -6 -38 5 -5 137
32 139 38 1 3 -21 31 -50 63 l-52 57 -11 -43z"/>
<path d="M1501 1409 l-73 -41 48 -49 c26 -27 51 -46 55 -41 9 9 52 163 47 167
-2 2 -37 -14 -77 -36z"/>
<path d="M2560 1286 l-255 -153 -98 -129 c-128 -169 -131 -175 -56 -121 35 24
114 80 175 123 105 75 494 413 494 430 0 7 6 10 -260 -150z"/>
<path d="M1797 1168 l-168 -61 5 -36 c3 -20 8 -70 11 -111 4 -41 8 -82 10 -90
3 -9 -14 -27 -44 -47 l-48 -31 -21 -114 c-12 -62 -24 -137 -28 -165 l-7 -53
119 0 119 0 52 153 c28 83 72 209 96 280 25 70 41 127 36 127 -4 0 -50 -27
-101 -60 -94 -60 -118 -68 -81 -27 42 46 232 297 225 297 -4 -1 -83 -28 -175
-62z"/>
<path d="M1463 1003 c-23 -49 -57 -123 -77 -167 l-36 -78 37 30 c21 17 55 48
75 69 36 37 37 40 43 136 3 53 4 97 2 97 -2 0 -22 -39 -44 -87z"/>
<path d="M1990 914 l-55 -15 -48 -162 c-43 -144 -65 -267 -48 -267 6 0 241
443 241 454 0 9 -29 6 -90 -10z"/>
<path d="M382 809 c-39 -22 -72 -44 -72 -48 0 -12 91 -94 97 -88 6 6 53 170
50 174 -1 1 -35 -16 -75 -38z"/>
<path d="M1091 776 l-74 -43 -19 -68 c-10 -37 -17 -71 -16 -75 3 -7 162 183
181 216 11 18 13 19 -72 -30z"/>
<path d="M1401 435 l0 -180 34 66 34 67 -29 103 c-17 57 -32 109 -34 114 -3 6
-5 -71 -5 -170z"/>
<path d="M855 395 l-90 -43 113 -1 c61 -1 112 3 112 8 0 16 -30 81 -38 80 -4
0 -47 -20 -97 -44z"/>
<path d="M1635 306 l-120 -41 -3 -92 -3 -92 56 -41 c31 -23 58 -40 60 -38 7 6
136 341 133 343 -2 2 -57 -16 -123 -39z"/>
<path d="M1215 295 c-27 -24 -46 -44 -42 -45 5 0 42 10 83 22 l75 21 -28 23
c-15 13 -30 23 -33 23 -3 1 -27 -19 -55 -44z"/>
<path d="M350 134 c-22 -20 -38 -39 -36 -41 6 -7 146 30 146 38 0 9 -46 39
-60 39 -5 0 -28 -16 -50 -36z"/>
</g>
</svg>
